<svg width="1439" height="203" viewBox="0 0 1439 203" fill="none" xmlns="http://www.w3.org/2000/svg">
<path opacity="0.35" fill-rule="evenodd" clip-rule="evenodd" d="M1439 21.751H-1V147.4C110.585 178.418 366.863 231.143 697.781 181.825C1080.17 124.837 1363.77 138.268 1439 143.459V21.751Z" fill="#EE3968"/>
<path fill-rule="evenodd" clip-rule="evenodd" d="M1439 0H-0.648438V106.296C-0.648438 106.296 326.928 226.84 798.463 160.011C1072.19 121.217 1297.84 115.056 1439 116.713V0Z" fill="#ED1D69"/>
<path d="M1229.26 64.008L1234.06 64.008C1234.92 64.008 1235.7 64.104 1236.41 64.296C1237.11 64.472 1237.71 64.752 1238.21 65.136C1238.72 65.504 1239.11 65.976 1239.38 66.552C1239.66 67.112 1239.79 67.776 1239.79 68.544C1239.79 69.312 1239.65 69.984 1239.36 70.56C1239.09 71.12 1238.7 71.592 1238.18 71.976C1237.69 72.344 1237.08 72.624 1236.36 72.816C1235.66 73.008 1234.87 73.104 1234.01 73.104L1230.98 73.104L1230.98 81L1229.26 81L1229.26 64.008ZM1230.98 71.64L1233.91 71.64C1235.27 71.64 1236.3 71.376 1237.01 70.848C1237.71 70.32 1238.06 69.552 1238.06 68.544C1238.06 67.488 1237.7 66.72 1236.96 66.24C1236.24 65.744 1235.22 65.496 1233.91 65.496L1230.98 65.496L1230.98 71.64ZM1241.93 72.24C1241.93 71.936 1241.93 71.544 1241.91 71.064C1241.89 70.584 1241.87 70.152 1241.84 69.768L1243.4 69.768C1243.43 70.072 1243.45 70.408 1243.47 70.776C1243.49 71.144 1243.49 71.448 1243.49 71.688L1243.54 71.688C1243.86 71.032 1244.34 70.504 1244.98 70.104C1245.62 69.688 1246.34 69.48 1247.14 69.48C1247.35 69.48 1247.53 69.488 1247.69 69.504C1247.87 69.52 1248.05 69.552 1248.22 69.6L1248.01 71.136C1247.91 71.104 1247.75 71.072 1247.53 71.04C1247.3 71.008 1247.08 70.992 1246.85 70.992C1246.42 70.992 1246.01 71.072 1245.61 71.232C1245.21 71.392 1244.85 71.648 1244.55 72C1244.26 72.336 1244.02 72.776 1243.83 73.32C1243.65 73.848 1243.57 74.488 1243.57 75.24L1243.57 81L1241.93 81L1241.93 72.24ZM1258.73 74.52C1258.68 73.464 1258.34 72.592 1257.7 71.904C1257.07 71.2 1256.18 70.848 1255.01 70.848C1254.46 70.848 1253.96 70.952 1253.5 71.16C1253.03 71.352 1252.62 71.624 1252.27 71.976C1251.92 72.312 1251.64 72.704 1251.43 73.152C1251.22 73.584 1251.1 74.04 1251.07 74.52L1258.73 74.52ZM1260.38 75.048C1260.38 75.16 1260.38 75.28 1260.38 75.408C1260.38 75.536 1260.38 75.672 1260.36 75.816L1251.05 75.816C1251.06 76.376 1251.18 76.904 1251.38 77.4C1251.59 77.896 1251.88 78.328 1252.25 78.696C1252.62 79.064 1253.05 79.36 1253.54 79.584C1254.04 79.792 1254.58 79.896 1255.15 79.896C1256 79.896 1256.73 79.704 1257.34 79.32C1257.96 78.92 1258.43 78.464 1258.75 77.952L1259.98 78.912C1259.3 79.76 1258.56 80.368 1257.74 80.736C1256.94 81.104 1256.08 81.288 1255.15 81.288C1254.32 81.288 1253.54 81.144 1252.82 80.856C1252.12 80.552 1251.51 80.136 1251 79.608C1250.49 79.08 1250.08 78.456 1249.78 77.736C1249.49 77.016 1249.34 76.232 1249.34 75.384C1249.34 74.536 1249.49 73.752 1249.78 73.032C1250.06 72.312 1250.46 71.688 1250.98 71.16C1251.49 70.632 1252.09 70.224 1252.78 69.936C1253.46 69.632 1254.21 69.48 1255.01 69.48C1255.89 69.48 1256.66 69.632 1257.34 69.936C1258.01 70.224 1258.57 70.624 1259.02 71.136C1259.46 71.632 1259.8 72.216 1260.02 72.888C1260.26 73.56 1260.38 74.28 1260.38 75.048ZM1269.87 72.432C1269.63 71.968 1269.26 71.592 1268.77 71.304C1268.29 71 1267.73 70.848 1267.11 70.848C1266.82 70.848 1266.53 70.88 1266.25 70.944C1265.96 71.008 1265.7 71.112 1265.48 71.256C1265.25 71.4 1265.07 71.584 1264.93 71.808C1264.8 72.032 1264.73 72.296 1264.73 72.6C1264.73 73.128 1264.95 73.536 1265.38 73.824C1265.81 74.096 1266.49 74.328 1267.42 74.52C1268.75 74.792 1269.73 75.192 1270.35 75.72C1270.99 76.232 1271.31 76.928 1271.31 77.808C1271.31 78.448 1271.18 78.992 1270.93 79.44C1270.69 79.872 1270.37 80.232 1269.97 80.52C1269.57 80.792 1269.11 80.984 1268.6 81.096C1268.1 81.224 1267.6 81.288 1267.09 81.288C1266.24 81.288 1265.41 81.112 1264.61 80.76C1263.81 80.408 1263.16 79.856 1262.65 79.104L1263.94 78.144C1264.23 78.64 1264.65 79.056 1265.21 79.392C1265.77 79.728 1266.39 79.896 1267.06 79.896C1267.41 79.896 1267.75 79.864 1268.07 79.8C1268.39 79.736 1268.67 79.624 1268.91 79.464C1269.15 79.304 1269.34 79.104 1269.49 78.864C1269.63 78.608 1269.7 78.296 1269.7 77.928C1269.7 77.336 1269.41 76.896 1268.84 76.608C1268.28 76.304 1267.46 76.024 1266.39 75.768C1266.05 75.688 1265.69 75.592 1265.31 75.48C1264.94 75.352 1264.6 75.176 1264.28 74.952C1263.96 74.712 1263.69 74.416 1263.49 74.064C1263.28 73.712 1263.17 73.272 1263.17 72.744C1263.17 72.168 1263.29 71.68 1263.51 71.28C1263.73 70.864 1264.03 70.528 1264.4 70.272C1264.78 70 1265.21 69.8 1265.69 69.672C1266.17 69.544 1266.67 69.48 1267.18 69.48C1267.97 69.48 1268.73 69.656 1269.46 70.008C1270.2 70.36 1270.75 70.856 1271.12 71.496L1269.87 72.432ZM1280.53 72.432C1280.29 71.968 1279.93 71.592 1279.43 71.304C1278.95 71 1278.4 70.848 1277.77 70.848C1277.49 70.848 1277.2 70.88 1276.91 70.944C1276.62 71.008 1276.37 71.112 1276.14 71.256C1275.92 71.4 1275.73 71.584 1275.59 71.808C1275.46 72.032 1275.4 72.296 1275.4 72.6C1275.4 73.128 1275.61 73.536 1276.05 73.824C1276.48 74.096 1277.16 74.328 1278.09 74.52C1279.41 74.792 1280.39 75.192 1281.01 75.72C1281.65 76.232 1281.97 76.928 1281.97 77.808C1281.97 78.448 1281.85 78.992 1281.59 79.44C1281.35 79.872 1281.03 80.232 1280.63 80.52C1280.23 80.792 1279.77 80.984 1279.26 81.096C1278.77 81.224 1278.26 81.288 1277.75 81.288C1276.9 81.288 1276.08 81.112 1275.28 80.76C1274.48 80.408 1273.82 79.856 1273.31 79.104L1274.61 78.144C1274.89 78.64 1275.32 79.056 1275.88 79.392C1276.44 79.728 1277.05 79.896 1277.73 79.896C1278.08 79.896 1278.41 79.864 1278.73 79.8C1279.05 79.736 1279.33 79.624 1279.57 79.464C1279.81 79.304 1280.01 79.104 1280.15 78.864C1280.29 78.608 1280.37 78.296 1280.37 77.928C1280.37 77.336 1280.08 76.896 1279.5 76.608C1278.94 76.304 1278.13 76.024 1277.05 75.768C1276.72 75.688 1276.36 75.592 1275.97 75.48C1275.61 75.352 1275.26 75.176 1274.94 74.952C1274.62 74.712 1274.36 74.416 1274.15 74.064C1273.94 73.712 1273.84 73.272 1273.84 72.744C1273.84 72.168 1273.95 71.68 1274.17 71.28C1274.4 70.864 1274.69 70.528 1275.06 70.272C1275.45 70 1275.88 69.8 1276.36 69.672C1276.84 69.544 1277.33 69.48 1277.85 69.48C1278.63 69.48 1279.39 69.656 1280.13 70.008C1280.86 70.36 1281.41 70.856 1281.78 71.496L1280.53 72.432ZM1290.93 64.008L1302.19 64.008L1302.19 66.648L1293.96 66.648L1293.96 70.968L1301.76 70.968L1301.76 73.512L1293.96 73.512L1293.96 78.312L1302.62 78.312L1302.62 81L1290.93 81L1290.93 64.008ZM1314.25 67.56C1313.93 67.144 1313.47 66.8 1312.88 66.528C1312.3 66.24 1311.72 66.096 1311.13 66.096C1310.77 66.096 1310.42 66.144 1310.07 66.24C1309.72 66.32 1309.4 66.456 1309.11 66.648C1308.82 66.824 1308.58 67.064 1308.39 67.368C1308.21 67.656 1308.13 68.008 1308.13 68.424C1308.13 68.808 1308.21 69.136 1308.37 69.408C1308.53 69.68 1308.74 69.912 1309.01 70.104C1309.3 70.296 1309.65 70.464 1310.05 70.608C1310.45 70.752 1310.89 70.896 1311.37 71.04C1311.91 71.216 1312.47 71.416 1313.05 71.64C1313.64 71.864 1314.17 72.16 1314.65 72.528C1315.15 72.896 1315.55 73.36 1315.85 73.92C1316.17 74.48 1316.33 75.176 1316.33 76.008C1316.33 76.92 1316.17 77.72 1315.83 78.408C1315.49 79.08 1315.05 79.64 1314.49 80.088C1313.93 80.536 1313.27 80.872 1312.52 81.096C1311.77 81.32 1310.97 81.432 1310.14 81.432C1309.04 81.432 1307.96 81.232 1306.9 80.832C1305.85 80.416 1304.98 79.808 1304.31 79.008L1306.47 76.992C1306.89 77.568 1307.44 78.024 1308.13 78.36C1308.83 78.696 1309.52 78.864 1310.19 78.864C1310.54 78.864 1310.9 78.824 1311.27 78.744C1311.64 78.648 1311.97 78.496 1312.25 78.288C1312.56 78.08 1312.8 77.824 1312.97 77.52C1313.17 77.2 1313.26 76.808 1313.26 76.344C1313.26 75.896 1313.16 75.528 1312.95 75.24C1312.74 74.936 1312.46 74.68 1312.11 74.472C1311.76 74.248 1311.34 74.056 1310.86 73.896C1310.38 73.736 1309.88 73.568 1309.35 73.392C1308.84 73.232 1308.33 73.04 1307.81 72.816C1307.3 72.592 1306.84 72.296 1306.42 71.928C1306.02 71.56 1305.69 71.112 1305.44 70.584C1305.18 70.04 1305.05 69.368 1305.05 68.568C1305.05 67.704 1305.23 66.96 1305.58 66.336C1305.95 65.712 1306.42 65.2 1307 64.8C1307.59 64.384 1308.25 64.08 1308.99 63.888C1309.74 63.68 1310.5 63.576 1311.27 63.576C1312.13 63.576 1313.01 63.728 1313.89 64.032C1314.78 64.336 1315.56 64.792 1316.21 65.4L1314.25 67.56ZM1331.63 67.992C1331.18 67.384 1330.6 66.944 1329.88 66.672C1329.16 66.384 1328.45 66.24 1327.76 66.24C1326.88 66.24 1326.08 66.4 1325.36 66.72C1324.64 67.04 1324.02 67.48 1323.49 68.04C1322.98 68.6 1322.58 69.256 1322.29 70.008C1322.02 70.76 1321.88 71.576 1321.88 72.456C1321.88 73.384 1322.02 74.232 1322.29 75C1322.56 75.768 1322.95 76.432 1323.44 76.992C1323.96 77.536 1324.56 77.96 1325.27 78.264C1325.97 78.568 1326.76 78.72 1327.64 78.72C1328.56 78.72 1329.36 78.544 1330.07 78.192C1330.77 77.824 1331.34 77.344 1331.77 76.752L1334.2 78.456C1333.44 79.4 1332.52 80.136 1331.44 80.664C1330.35 81.176 1329.08 81.432 1327.62 81.432C1326.29 81.432 1325.07 81.216 1323.95 80.784C1322.84 80.336 1321.89 79.72 1321.09 78.936C1320.29 78.136 1319.67 77.192 1319.22 76.104C1318.77 75 1318.55 73.784 1318.55 72.456C1318.55 71.096 1318.78 69.872 1319.24 68.784C1319.72 67.68 1320.37 66.744 1321.19 65.976C1322.02 65.208 1323 64.616 1324.12 64.2C1325.24 63.784 1326.45 63.576 1327.76 63.576C1328.31 63.576 1328.88 63.632 1329.47 63.744C1330.06 63.84 1330.63 64 1331.17 64.224C1331.72 64.432 1332.23 64.696 1332.71 65.016C1333.19 65.336 1333.6 65.72 1333.93 66.168L1331.63 67.992ZM1347.43 71.136L1344.26 71.136L1344.26 77.688C1344.26 78.104 1344.3 78.448 1344.38 78.72C1344.46 78.992 1344.57 79.208 1344.72 79.368C1344.88 79.512 1345.06 79.616 1345.27 79.68C1345.48 79.728 1345.7 79.752 1345.94 79.752C1346.16 79.752 1346.4 79.72 1346.64 79.656C1346.89 79.592 1347.13 79.504 1347.36 79.392L1347.43 80.808C1347.14 80.92 1346.84 81 1346.52 81.048C1346.21 81.112 1345.88 81.144 1345.51 81.144C1345.2 81.144 1344.88 81.104 1344.55 81.024C1344.21 80.944 1343.9 80.792 1343.61 80.568C1343.32 80.344 1343.08 80.04 1342.89 79.656C1342.72 79.272 1342.63 78.768 1342.63 78.144L1342.63 71.136L1340.3 71.136L1340.3 69.768L1342.63 69.768L1342.63 66.6L1344.26 66.6L1344.26 69.768L1347.43 69.768L1347.43 71.136ZM1361.14 75.384C1361.14 76.232 1360.99 77.016 1360.68 77.736C1360.4 78.456 1359.99 79.08 1359.46 79.608C1358.93 80.136 1358.3 80.552 1357.56 80.856C1356.83 81.144 1356.02 81.288 1355.14 81.288C1354.28 81.288 1353.48 81.144 1352.74 80.856C1352 80.552 1351.37 80.136 1350.84 79.608C1350.32 79.08 1349.9 78.456 1349.6 77.736C1349.31 77.016 1349.16 76.232 1349.16 75.384C1349.16 74.536 1349.31 73.752 1349.6 73.032C1349.9 72.312 1350.32 71.688 1350.84 71.16C1351.37 70.632 1352 70.224 1352.74 69.936C1353.48 69.632 1354.28 69.48 1355.14 69.48C1356.02 69.48 1356.83 69.632 1357.56 69.936C1358.3 70.224 1358.93 70.632 1359.46 71.16C1359.99 71.688 1360.4 72.312 1360.68 73.032C1360.99 73.752 1361.14 74.536 1361.14 75.384ZM1359.41 75.384C1359.41 74.76 1359.31 74.176 1359.1 73.632C1358.91 73.072 1358.63 72.592 1358.26 72.192C1357.89 71.776 1357.44 71.448 1356.92 71.208C1356.39 70.968 1355.8 70.848 1355.14 70.848C1354.48 70.848 1353.89 70.968 1353.36 71.208C1352.85 71.448 1352.41 71.776 1352.04 72.192C1351.68 72.592 1351.39 73.072 1351.18 73.632C1350.99 74.176 1350.89 74.76 1350.89 75.384C1350.89 76.008 1350.99 76.6 1351.18 77.16C1351.39 77.704 1351.68 78.184 1352.04 78.6C1352.41 79 1352.85 79.32 1353.36 79.56C1353.89 79.784 1354.48 79.896 1355.14 79.896C1355.8 79.896 1356.39 79.784 1356.92 79.56C1357.44 79.32 1357.89 79 1358.26 78.6C1358.63 78.184 1358.91 77.704 1359.1 77.16C1359.31 76.6 1359.41 76.008 1359.41 75.384ZM1372.48 79.464L1381.57 79.464L1381.57 81L1370.75 81L1370.75 64.008L1381.28 64.008L1381.28 65.544L1372.48 65.544L1372.48 71.4L1380.71 71.4L1380.71 72.912L1372.48 72.912L1372.48 79.464ZM1387.5 75.192L1383.34 69.768L1385.43 69.768L1388.5 74.04L1391.58 69.768L1393.54 69.768L1389.46 75.12L1393.93 81L1391.82 81L1388.48 76.32L1385.05 81L1383.08 81L1387.5 75.192ZM1398.14 81L1396.5 81L1396.5 69.768L1398.14 69.768L1398.14 81ZM1398.47 65.448C1398.47 65.784 1398.35 66.064 1398.11 66.288C1397.87 66.496 1397.61 66.6 1397.32 66.6C1397.03 66.6 1396.77 66.496 1396.53 66.288C1396.29 66.064 1396.17 65.784 1396.17 65.448C1396.17 65.112 1396.29 64.84 1396.53 64.632C1396.77 64.408 1397.03 64.296 1397.32 64.296C1397.61 64.296 1397.87 64.408 1398.11 64.632C1398.35 64.84 1398.47 65.112 1398.47 65.448ZM1407.54 71.136L1404.38 71.136L1404.38 77.688C1404.38 78.104 1404.42 78.448 1404.5 78.72C1404.58 78.992 1404.69 79.208 1404.83 79.368C1404.99 79.512 1405.18 79.616 1405.38 79.68C1405.59 79.728 1405.82 79.752 1406.06 79.752C1406.28 79.752 1406.51 79.72 1406.75 79.656C1407.01 79.592 1407.25 79.504 1407.47 79.392L1407.54 80.808C1407.26 80.92 1406.95 81 1406.63 81.048C1406.33 81.112 1405.99 81.144 1405.62 81.144C1405.32 81.144 1405 81.104 1404.66 81.024C1404.33 80.944 1404.02 80.792 1403.73 80.568C1403.44 80.344 1403.2 80.04 1403.01 79.656C1402.83 79.272 1402.74 78.768 1402.74 78.144L1402.74 71.136L1400.42 71.136L1400.42 69.768L1402.74 69.768L1402.74 66.6L1404.38 66.6L1404.38 69.768L1407.54 69.768L1407.54 71.136Z" fill="white"/>
</svg>
